<svg width="512" height="512" viewBox="0 0 512 512" fill="none" xmlns="http://www.w3.org/2000/svg">
<g clip-path="url(#clip0_757_22112)" filter="url(#filter0_i_757_22112)">
<rect width="512" height="512" fill="#1C4AB0"/>
<g opacity="0.7" filter="url(#filter1_f_757_22112)">
<circle cx="390.5" cy="390.5" r="390.5" transform="matrix(1 0 0 -1 10 502)" fill="#2563EB"/>
</g>
<g filter="url(#filter2_i_757_22112)">
<path d="M90.7932 296.344C83.4012 296.344 76.9052 294.664 71.3052 291.304C65.7799 287.944 61.4866 283.277 58.4252 277.304C55.3639 271.256 53.8332 264.2 53.8332 256.136C53.8332 248.147 55.4012 241.091 58.5372 234.968C61.6732 228.771 66.1532 223.955 71.9772 220.52C77.8759 217.011 84.8572 215.256 92.9212 215.256C102.031 215.256 109.572 217.459 115.545 221.864C121.593 226.195 125.513 232.243 127.305 240.008H112.185C111.065 236.125 108.863 233.101 105.577 230.936C102.292 228.771 98.0359 227.688 92.8092 227.688C87.5079 227.688 82.9532 228.845 79.1452 231.16C75.4119 233.4 72.5372 236.685 70.5212 241.016C68.5799 245.272 67.6092 250.349 67.6092 256.248C67.6092 262.147 68.5799 267.224 70.5212 271.48C72.5372 275.736 75.3746 278.984 79.0332 281.224C82.6919 283.389 86.9852 284.472 91.9132 284.472C99.2306 284.472 104.756 282.419 108.489 278.312C112.223 274.205 114.425 268.867 115.097 262.296H94.8252V252.104H128.649V295H116.329L115.209 284.248C113.492 286.787 111.513 288.989 109.273 290.856C107.033 292.648 104.383 294.029 101.321 295C98.3346 295.896 94.8252 296.344 90.7932 296.344ZM157.821 296.344C152.445 296.344 147.592 295.112 143.261 292.648C139.005 290.109 135.645 286.637 133.181 282.232C130.792 277.752 129.597 272.637 129.597 266.888C129.597 260.989 130.829 255.837 133.293 251.432C135.757 246.952 139.117 243.48 143.373 241.016C147.704 238.477 152.557 237.208 157.933 237.208C163.309 237.208 168.125 238.477 172.381 241.016C176.712 243.48 180.072 246.915 182.461 251.32C184.925 255.725 186.157 260.877 186.157 266.776C186.157 272.675 184.925 277.827 182.461 282.232C179.997 286.637 176.6 290.109 172.269 292.648C168.013 295.112 163.197 296.344 157.821 296.344ZM157.821 284.808C160.509 284.808 162.936 284.136 165.101 282.792C167.341 281.448 169.133 279.432 170.477 276.744C171.821 274.056 172.493 270.733 172.493 266.776C172.493 262.819 171.821 259.533 170.477 256.92C169.208 254.232 167.453 252.216 165.213 250.872C163.048 249.528 160.621 248.856 157.933 248.856C155.32 248.856 152.893 249.528 150.653 250.872C148.413 252.216 146.621 254.232 145.277 256.92C143.933 259.533 143.261 262.819 143.261 266.776C143.261 270.733 143.933 274.056 145.277 276.744C146.621 279.432 148.376 281.448 150.541 282.792C152.781 284.136 155.208 284.808 157.821 284.808ZM263.729 295L221.169 252.328C217.734 248.893 215.27 245.757 213.777 242.92C212.358 240.083 211.649 237.096 211.649 233.96C211.649 230.376 212.508 227.203 214.225 224.44C216.017 221.603 218.556 219.363 221.841 217.72C225.201 216.077 229.233 215.256 233.937 215.256C238.641 215.256 242.598 216.115 245.809 217.832C249.02 219.549 251.484 221.827 253.201 224.664C254.918 227.501 255.74 230.712 255.665 234.296H242.673C242.673 231.459 241.814 229.331 240.097 227.912C238.38 226.419 236.289 225.672 233.825 225.672C230.988 225.672 228.748 226.419 227.105 227.912C225.462 229.405 224.641 231.384 224.641 233.848C224.641 235.789 225.238 237.805 226.433 239.896C227.628 241.912 229.382 244.189 231.697 246.728L279.969 295H263.729ZM229.009 296.344C223.409 296.344 218.518 295.373 214.337 293.432C210.23 291.416 207.02 288.616 204.705 285.032C202.465 281.373 201.345 277.117 201.345 272.264C201.345 268.531 202.092 265.059 203.585 261.848C205.153 258.637 207.468 255.8 210.529 253.336C213.665 250.872 217.548 248.893 222.177 247.4L227.217 245.72L233.377 254.12L228.449 255.8C223.745 257.368 220.236 259.496 217.921 262.184C215.606 264.872 214.449 268.008 214.449 271.592C214.449 274.131 215.046 276.445 216.241 278.536C217.51 280.552 219.302 282.157 221.617 283.352C223.932 284.547 226.62 285.144 229.681 285.144C233.788 285.144 237.484 284.248 240.769 282.456C244.054 280.589 247.228 277.64 250.289 273.608C251.708 271.816 253.126 269.763 254.545 267.448C256.038 265.059 257.532 262.408 259.025 259.496L261.713 254.344H275.489L271.345 262.408C269.404 266.216 267.462 269.725 265.521 272.936C263.58 276.072 261.564 278.872 259.473 281.336C255.217 286.563 250.625 290.371 245.697 292.76C240.769 295.149 235.206 296.344 229.009 296.344ZM329.668 296.344C322.276 296.344 315.78 294.664 310.18 291.304C304.655 287.944 300.362 283.277 297.3 277.304C294.239 271.256 292.708 264.2 292.708 256.136C292.708 248.147 294.276 241.091 297.412 234.968C300.548 228.771 305.028 223.955 310.852 220.52C316.751 217.011 323.732 215.256 331.796 215.256C340.906 215.256 348.447 217.459 354.42 221.864C360.468 226.195 364.388 232.243 366.18 240.008H351.06C349.94 236.125 347.738 233.101 344.452 230.936C341.167 228.771 336.911 227.688 331.684 227.688C326.383 227.688 321.828 228.845 318.02 231.16C314.287 233.4 311.412 236.685 309.396 241.016C307.455 245.272 306.484 250.349 306.484 256.248C306.484 262.147 307.455 267.224 309.396 271.48C311.412 275.736 314.25 278.984 317.908 281.224C321.567 283.389 325.86 284.472 330.788 284.472C338.106 284.472 343.631 282.419 347.364 278.312C351.098 274.205 353.3 268.867 353.972 262.296H333.7V252.104H367.524V295H355.204L354.084 284.248C352.367 286.787 350.388 288.989 348.148 290.856C345.908 292.648 343.258 294.029 340.196 295C337.21 295.896 333.7 296.344 329.668 296.344ZM396.808 296.344C391.208 296.344 386.28 295.149 382.024 292.76C377.768 290.296 374.445 286.861 372.056 282.456C369.667 278.051 368.472 272.973 368.472 267.224C368.472 261.251 369.629 256.024 371.944 251.544C374.333 247.064 377.656 243.555 381.912 241.016C386.243 238.477 391.245 237.208 396.92 237.208C402.445 237.208 407.261 238.44 411.368 240.904C415.475 243.368 418.648 246.691 420.888 250.872C423.128 254.979 424.248 259.608 424.248 264.76C424.248 265.507 424.248 266.328 424.248 267.224C424.248 268.12 424.173 269.053 424.024 270.024H378.104V261.4H410.696C410.547 257.293 409.165 254.083 406.552 251.768C403.939 249.379 400.691 248.184 396.808 248.184C394.045 248.184 391.507 248.819 389.192 250.088C386.877 251.357 385.048 253.261 383.704 255.8C382.36 258.264 381.688 261.4 381.688 265.208V268.456C381.688 271.965 382.323 274.989 383.592 277.528C384.936 280.067 386.728 282.008 388.968 283.352C391.283 284.621 393.859 285.256 396.696 285.256C399.832 285.256 402.408 284.584 404.424 283.24C406.515 281.896 408.045 280.104 409.016 277.864H422.68C421.635 281.373 419.917 284.547 417.528 287.384C415.139 290.147 412.189 292.349 408.68 293.992C405.171 295.56 401.213 296.344 396.808 296.344ZM448.891 295C445.083 295 441.761 294.403 438.923 293.208C436.161 292.013 433.995 290.035 432.427 287.272C430.859 284.509 430.075 280.776 430.075 276.072V249.864H420.443V238.552H430.075L431.643 223.656H443.515V238.552H458.859V249.864H443.515V276.072C443.515 278.909 444.113 280.888 445.307 282.008C446.577 283.053 448.667 283.576 451.579 283.576H458.523V295H448.891Z" fill="white"/>
</g>
</g>
<defs>
<filter id="filter0_i_757_22112" x="0" y="-5" width="512" height="517" filterUnits="userSpaceOnUse" color-interpolation-filters="sRGB">
<feFlood flood-opacity="0" result="BackgroundImageFix"/>
<feBlend mode="normal" in="SourceGraphic" in2="BackgroundImageFix" result="shape"/>
<feColorMatrix in="SourceAlpha" type="matrix" values="0 0 0 0 0 0 0 0 0 0 0 0 0 0 0 0 0 0 127 0" result="hardAlpha"/>
<feMorphology radius="6" operator="erode" in="SourceAlpha" result="effect1_innerShadow_757_22112"/>
<feOffset dy="-5"/>
<feGaussianBlur stdDeviation="3.5"/>
<feComposite in2="hardAlpha" operator="arithmetic" k2="-1" k3="1"/>
<feColorMatrix type="matrix" values="0 0 0 0 0.273715 0 0 0 0 0.470873 0 0 0 0 0.918269 0 0 0 1 0"/>
<feBlend mode="normal" in2="shape" result="effect1_innerShadow_757_22112"/>
</filter>
<filter id="filter1_f_757_22112" x="-110" y="-399" width="1021" height="1021" filterUnits="userSpaceOnUse" color-interpolation-filters="sRGB">
<feFlood flood-opacity="0" result="BackgroundImageFix"/>
<feBlend mode="normal" in="SourceGraphic" in2="BackgroundImageFix" result="shape"/>
<feGaussianBlur stdDeviation="60" result="effect1_foregroundBlur_757_22112"/>
</filter>
<filter id="filter2_i_757_22112" x="53.834" y="215.256" width="405.025" height="81.088" filterUnits="userSpaceOnUse" color-interpolation-filters="sRGB">
<feFlood flood-opacity="0" result="BackgroundImageFix"/>
<feBlend mode="normal" in="SourceGraphic" in2="BackgroundImageFix" result="shape"/>
<feColorMatrix in="SourceAlpha" type="matrix" values="0 0 0 0 0 0 0 0 0 0 0 0 0 0 0 0 0 0 127 0" result="hardAlpha"/>
<feOffset/>
<feGaussianBlur stdDeviation="5"/>
<feComposite in2="hardAlpha" operator="arithmetic" k2="-1" k3="1"/>
<feColorMatrix type="matrix" values="0 0 0 0 0.0388314 0 0 0 0 0.237255 0 0 0 0 0.673077 0 0 0 0.6 0"/>
<feBlend mode="normal" in2="shape" result="effect1_innerShadow_757_22112"/>
</filter>
<clipPath id="clip0_757_22112">
<rect width="512" height="512" fill="white"/>
</clipPath>
</defs>
</svg>
